<svg xmlns="http://www.w3.org/2000/svg" xmlns:xlink="http://www.w3.org/1999/xlink" width="1333" zoomAndPan="magnify" viewBox="0 0 999.75 294.749989" height="393" preserveAspectRatio="xMidYMid meet" version="1.0"><path fill="#416ef5" d="M 631.9375 150.71875 L 631.9375 171.953125 L 627.066406 171.953125 L 627.066406 142.390625 L 631.523438 142.390625 L 641.847656 156.378906 L 652.214844 142.390625 L 656.667969 142.390625 L 656.667969 171.953125 L 651.757812 171.953125 L 651.757812 150.761719 L 641.890625 164.167969 Z M 631.9375 150.71875 " fill-opacity="1" fill-rule="nonzero"/><path fill="#416ef5" d="M 663.917969 142.390625 L 681.695312 142.390625 L 681.695312 147.054688 L 668.789062 147.054688 L 668.789062 154.632812 L 679.199219 154.632812 L 679.199219 159.296875 L 668.789062 159.296875 L 668.789062 167.289062 L 681.695312 167.289062 L 681.695312 171.953125 L 663.917969 171.953125 Z M 663.917969 142.390625 " fill-opacity="1" fill-rule="nonzero"/><path fill="#416ef5" d="M 696.398438 167.414062 C 702.726562 167.414062 706.933594 162.960938 706.933594 157.171875 C 706.933594 151.382812 702.726562 146.929688 696.398438 146.929688 L 692.195312 146.929688 L 692.195312 167.414062 Z M 687.320312 142.390625 L 696.398438 142.390625 C 705.183594 142.390625 711.886719 148.800781 711.886719 157.171875 C 711.886719 165.539062 705.183594 171.953125 696.398438 171.953125 L 687.320312 171.953125 Z M 687.320312 142.390625 " fill-opacity="1" fill-rule="nonzero"/><path fill="#416ef5" d="M 717.261719 142.390625 L 722.132812 142.390625 L 722.132812 171.953125 L 717.261719 171.953125 Z M 717.261719 142.390625 " fill-opacity="1" fill-rule="nonzero"/><path fill="#416ef5" d="M 742.910156 141.890625 C 750.027344 141.890625 755.734375 146.511719 757.148438 152.300781 L 751.902344 152.300781 C 750.652344 148.929688 747.074219 146.597656 742.910156 146.597656 C 736.75 146.597656 732.417969 151.21875 732.417969 157.171875 C 732.417969 163.125 736.75 167.746094 742.910156 167.746094 C 747.074219 167.746094 750.652344 165.414062 751.902344 162.042969 L 757.148438 162.042969 C 755.734375 167.832031 750.027344 172.453125 742.910156 172.453125 C 734.125 172.453125 727.503906 165.789062 727.503906 157.171875 C 727.503906 148.554688 734.125 141.890625 742.910156 141.890625 " fill-opacity="1" fill-rule="nonzero"/><path fill="#416ef5" d="M 762.066406 142.390625 L 766.9375 142.390625 L 766.9375 171.953125 L 762.066406 171.953125 Z M 762.066406 142.390625 " fill-opacity="1" fill-rule="nonzero"/><path fill="#416ef5" d="M 795.710938 171.953125 L 779.054688 150.675781 L 779.054688 171.953125 L 774.183594 171.953125 L 774.183594 142.390625 L 778.429688 142.390625 L 795.042969 163.582031 L 795.042969 142.390625 L 799.957031 142.390625 L 799.957031 171.953125 Z M 795.710938 171.953125 " fill-opacity="1" fill-rule="nonzero"/><path fill="#416ef5" d="M 823.484375 159.878906 L 818.738281 148.929688 L 813.992188 159.878906 Z M 816.65625 142.390625 L 820.902344 142.390625 L 833.808594 171.953125 L 828.730469 171.953125 L 825.359375 164.207031 L 812.117188 164.207031 L 808.789062 171.953125 L 803.75 171.953125 Z M 816.65625 142.390625 " fill-opacity="1" fill-rule="nonzero"/><path fill="#416ef5" d="M 636.144531 217.382812 C 642.472656 217.382812 646.675781 212.929688 646.675781 207.140625 C 646.675781 201.355469 642.472656 196.898438 636.144531 196.898438 L 631.9375 196.898438 L 631.9375 217.382812 Z M 627.066406 192.359375 L 636.144531 192.359375 C 644.929688 192.359375 651.632812 198.773438 651.632812 207.140625 C 651.632812 215.511719 644.929688 221.921875 636.144531 221.921875 L 627.066406 221.921875 Z M 627.066406 192.359375 " fill-opacity="1" fill-rule="nonzero"/><path fill="#416ef5" d="M 657.007812 192.359375 L 661.878906 192.359375 L 661.878906 221.921875 L 657.007812 221.921875 Z M 657.007812 192.359375 " fill-opacity="1" fill-rule="nonzero"/><path fill="#416ef5" d="M 685.402344 209.847656 L 680.65625 198.898438 L 675.910156 209.847656 Z M 678.574219 192.359375 L 682.820312 192.359375 L 695.726562 221.921875 L 690.648438 221.921875 L 687.277344 214.179688 L 674.035156 214.179688 L 670.707031 221.921875 L 665.667969 221.921875 Z M 678.574219 192.359375 " fill-opacity="1" fill-rule="nonzero"/><path fill="#416ef5" d="M 712.011719 191.859375 C 718.632812 191.859375 724.171875 195.898438 726.003906 201.105469 L 720.464844 201.105469 C 718.925781 198.398438 715.71875 196.566406 712.011719 196.566406 C 705.851562 196.566406 701.519531 201.1875 701.519531 207.140625 C 701.519531 213.09375 705.851562 217.714844 712.054688 217.714844 C 717.550781 217.714844 721.132812 214.261719 721.753906 209.222656 L 711.636719 209.222656 L 711.636719 204.644531 L 726.753906 204.644531 C 727.835938 216.09375 720.757812 222.421875 712.054688 222.421875 C 703.230469 222.421875 696.609375 215.757812 696.609375 207.140625 C 696.609375 198.523438 703.230469 191.859375 712.011719 191.859375 " fill-opacity="1" fill-rule="nonzero"/><path fill="#416ef5" d="M 753.777344 221.921875 L 737.125 200.644531 L 737.125 221.921875 L 732.25 221.921875 L 732.25 192.359375 L 736.5 192.359375 L 753.113281 213.554688 L 753.113281 192.359375 L 758.023438 192.359375 L 758.023438 221.921875 Z M 753.777344 221.921875 " fill-opacity="1" fill-rule="nonzero"/><path fill="#416ef5" d="M 780.34375 183.324219 L 785.714844 183.324219 L 780.804688 189.863281 L 777.222656 189.863281 Z M 778.679688 217.714844 C 784.507812 217.714844 789.003906 213.011719 789.003906 207.140625 C 789.003906 201.269531 784.507812 196.566406 778.679688 196.566406 C 772.808594 196.566406 768.3125 201.269531 768.3125 207.140625 C 768.3125 213.011719 772.808594 217.714844 778.679688 217.714844 M 778.679688 222.421875 C 770.1875 222.421875 763.402344 215.675781 763.402344 207.140625 C 763.402344 198.605469 770.1875 191.863281 778.679688 191.863281 C 787.132812 191.863281 793.960938 198.605469 793.960938 207.140625 C 793.960938 215.675781 787.132812 222.421875 778.679688 222.421875 " fill-opacity="1" fill-rule="nonzero"/><path fill="#416ef5" d="M 802.167969 213.429688 C 802.542969 216.425781 805.332031 217.882812 808.039062 217.882812 C 810.828125 217.882812 812.992188 216.46875 812.992188 214.136719 C 812.992188 212.136719 811.703125 210.722656 808.914062 209.804688 L 805.289062 208.597656 C 800.625 207.097656 798.046875 204.394531 798.046875 200.0625 C 798.003906 194.941406 801.917969 191.863281 807.457031 191.863281 C 813.617188 191.863281 816.988281 196.191406 817.28125 200.3125 L 812.410156 200.3125 C 811.703125 197.523438 809.496094 196.398438 807.371094 196.398438 C 804.914062 196.398438 802.957031 197.691406 802.917969 199.8125 C 802.917969 201.976562 804.289062 203.144531 806.914062 204.019531 L 810.578125 205.183594 C 815.199219 206.683594 817.90625 209.472656 817.90625 213.96875 C 817.90625 218.964844 813.90625 222.421875 808.078125 222.421875 C 801.460938 222.421875 797.503906 218.089844 797.296875 213.429688 Z M 802.167969 213.429688 " fill-opacity="1" fill-rule="nonzero"/><path fill="#416ef5" d="M 828.527344 197.023438 L 819.949219 197.023438 L 819.949219 192.359375 L 842.015625 192.359375 L 842.015625 197.023438 L 833.398438 197.023438 L 833.398438 221.921875 L 828.527344 221.921875 Z M 828.527344 197.023438 " fill-opacity="1" fill-rule="nonzero"/><path fill="#416ef5" d="M 846.390625 192.359375 L 851.261719 192.359375 L 851.261719 221.921875 L 846.390625 221.921875 Z M 846.390625 192.359375 " fill-opacity="1" fill-rule="nonzero"/><path fill="#416ef5" d="M 872.039062 191.859375 C 879.160156 191.859375 884.863281 196.484375 886.277344 202.269531 L 881.03125 202.269531 C 879.78125 198.898438 876.203125 196.566406 872.039062 196.566406 C 865.878906 196.566406 861.546875 201.1875 861.546875 207.140625 C 861.546875 213.09375 865.878906 217.714844 872.039062 217.714844 C 876.203125 217.714844 879.78125 215.382812 881.03125 212.011719 L 886.277344 212.011719 C 884.863281 217.800781 879.160156 222.421875 872.039062 222.421875 C 863.253906 222.421875 856.636719 215.757812 856.636719 207.140625 C 856.636719 198.523438 863.253906 191.859375 872.039062 191.859375 " fill-opacity="1" fill-rule="nonzero"/><path fill="#416ef5" d="M 906.851562 209.847656 L 902.105469 198.898438 L 897.359375 209.847656 Z M 900.023438 192.359375 L 904.269531 192.359375 L 917.175781 221.921875 L 912.097656 221.921875 L 908.722656 214.179688 L 895.484375 214.179688 L 892.152344 221.921875 L 887.113281 221.921875 Z M 900.023438 192.359375 " fill-opacity="1" fill-rule="nonzero"/><path fill="#ffffff" d="M 103.484375 179.226562 L 103.484375 79.109375 C 103.484375 77.121094 101.871094 75.511719 99.886719 75.511719 L 75.734375 75.511719 C 73.75 75.511719 72.140625 77.121094 72.140625 79.109375 L 72.140625 179.226562 C 72.140625 202.644531 91.125 221.628906 114.539062 221.628906 L 169.496094 221.628906 C 171.484375 221.628906 173.09375 220.019531 173.09375 218.03125 L 173.09375 193.882812 C 173.09375 191.894531 171.484375 190.285156 169.496094 190.285156 L 114.542969 190.285156 C 108.433594 190.285156 103.484375 185.335938 103.484375 179.226562 " fill-opacity="1" fill-rule="nonzero"/><path fill="#ffffff" d="M 489.914062 190.890625 L 427.992188 190.890625 L 427.992188 163.691406 L 479.828125 163.691406 L 479.828125 163.714844 C 480.101562 163.714844 480.375 163.695312 480.652344 163.691406 L 489.4375 163.691406 C 496.632812 163.691406 502.925781 169.140625 503.40625 176.359375 C 503.933594 184.277344 497.679688 190.890625 489.914062 190.890625 M 479.382812 106.59375 C 486.230469 106.59375 492.226562 111.738281 492.753906 118.601562 C 493.332031 126.113281 487.53125 132.417969 480.238281 132.648438 L 427.992188 132.648438 L 427.992188 106.59375 Z M 517.417969 142.285156 C 521.792969 134.976562 524.125 126.292969 523.59375 117.042969 C 522.25 93.582031 502.292969 75.550781 478.917969 75.550781 L 427.992188 75.511719 L 407.101562 75.511719 C 401.328125 75.511719 396.648438 80.21875 396.648438 86.023438 L 396.648438 211.378906 C 396.648438 217.183594 401.328125 221.890625 407.101562 221.890625 L 427.050781 221.890625 L 427.050781 221.933594 L 489.074219 221.933594 C 513.632812 221.933594 534.171875 202.242188 534.3125 177.550781 C 534.394531 163.269531 527.761719 150.519531 517.417969 142.285156 " fill-opacity="1" fill-rule="nonzero"/><path fill="#ffffff" d="M 280.414062 108.253906 L 301.9375 162.167969 C 295.335938 163.894531 288.515625 164.792969 281.515625 164.792969 C 273.925781 164.792969 266.386719 163.683594 259.140625 161.59375 Z M 233.449219 219.140625 L 246.265625 190.4375 C 257.589844 194.183594 269.515625 196.136719 281.515625 196.136719 C 292.8125 196.136719 304.085938 194.394531 314.835938 191.058594 L 327.375 219.140625 C 328.121094 220.8125 329.78125 221.890625 331.617188 221.890625 L 357.433594 221.890625 C 360.015625 221.890625 361.738281 219.230469 360.6875 216.875 L 302.570312 86.703125 C 298.671875 77.972656 289.976562 72.332031 280.414062 72.332031 C 270.851562 72.332031 262.15625 77.972656 258.253906 86.703125 L 200.140625 216.875 C 199.089844 219.230469 200.8125 221.890625 203.394531 221.890625 L 229.210938 221.890625 C 231.042969 221.890625 232.703125 220.8125 233.449219 219.140625 " fill-opacity="1" fill-rule="nonzero"/><path fill="#416ef5" d="M 582.617188 190.886719 L 570.433594 190.886719 C 565.308594 190.886719 561.15625 195.042969 561.15625 200.167969 L 561.15625 212.347656 C 561.15625 217.472656 565.308594 221.625 570.433594 221.625 L 582.617188 221.625 C 587.742188 221.625 591.894531 217.472656 591.894531 212.347656 L 591.894531 200.167969 C 591.894531 195.042969 587.742188 190.886719 582.617188 190.886719 " fill-opacity="1" fill-rule="nonzero"/></svg>