<?xml version="1.0" encoding="UTF-8" standalone="no"?>
<svg
   xmlns:dc="http://purl.org/dc/elements/1.1/"
   xmlns:cc="http://creativecommons.org/ns#"
   xmlns:rdf="http://www.w3.org/1999/02/22-rdf-syntax-ns#"
   xmlns:svg="http://www.w3.org/2000/svg"
   xmlns="http://www.w3.org/2000/svg"
   viewBox="0 0 1333.3333 392.672"
   height="392.672"
   width="1333.3333"
   xml:space="preserve"
   id="svg2"
   version="1.1"><metadata
     id="metadata8"><rdf:RDF><cc:Work
         rdf:about=""><dc:format>image/svg+xml</dc:format><dc:type
           rdf:resource="http://purl.org/dc/dcmitype/StillImage" /></cc:Work></rdf:RDF></metadata><defs
     id="defs6"><clipPath
       id="clipPath26"
       clipPathUnits="userSpaceOnUse"><path
         id="path24"
         d="M 0,294.504 H 1000 V 0 H 0 Z" /></clipPath></defs><g
     transform="matrix(1.3333333,0,0,-1.3333333,0,392.672)"
     id="g10"><g
       transform="translate(632.2133,143.7789)"
       id="g12"><path
         id="path14"
         style="fill:#5b84d9;fill-opacity:1;fill-rule:nonzero;stroke:none"
         d="M 0,0 V -21.237 H -4.873 V 8.328 h 4.456 L 9.911,-5.663 20.279,8.328 h 4.456 v -29.565 h -4.913 v 21.195 l -9.87,-13.409 z" /></g><g
       transform="translate(664.1981,152.1073)"
       id="g16"><path
         id="path18"
         style="fill:#5b84d9;fill-opacity:1;fill-rule:nonzero;stroke:none"
         d="M 0,0 H 17.781 V -4.664 H 4.873 v -7.579 h 10.41 v -4.664 H 4.873 v -7.995 h 12.908 v -4.664 l -17.781,0 z" /></g><g
       id="g20"><g
         clip-path="url(#clipPath26)"
         id="g22"><g
           transform="translate(696.683,127.0808)"
           id="g28"><path
             id="path30"
             style="fill:#5b84d9;fill-opacity:1;fill-rule:nonzero;stroke:none"
             d="M 0,0 C 6.33,0 10.536,4.455 10.536,10.243 10.536,16.032 6.33,20.487 0,20.487 H -4.205 V 0 Z M -9.078,25.026 H 0 c 8.786,0 15.49,-6.412 15.49,-14.783 C 15.49,1.873 8.786,-4.539 0,-4.539 h -9.078 z" /></g><path
           id="path32"
           style="fill:#5b84d9;fill-opacity:1;fill-rule:nonzero;stroke:none"
           d="m 717.549,152.107 h 4.873 v -29.566 h -4.873 z" /><g
           transform="translate(743.2025,152.6066)"
           id="g34"><path
             id="path36"
             style="fill:#5b84d9;fill-opacity:1;fill-rule:nonzero;stroke:none"
             d="M 0,0 C 7.12,0 12.825,-4.622 14.241,-10.41 H 8.994 c -1.25,3.373 -4.83,5.705 -8.994,5.705 -6.163,0 -10.494,-4.623 -10.494,-10.578 0,-5.954 4.331,-10.576 10.494,-10.576 4.164,0 7.744,2.332 8.994,5.705 h 5.247 C 12.825,-25.943 7.12,-30.565 0,-30.565 c -8.786,0 -15.407,6.663 -15.407,15.282 C -15.407,-6.663 -8.786,0 0,0" /></g><path
           id="path38"
           style="fill:#5b84d9;fill-opacity:1;fill-rule:nonzero;stroke:none"
           d="m 762.362,152.107 h 4.873 v -29.566 h -4.873 z" /><g
           transform="translate(796.0105,122.5416)"
           id="g40"><path
             id="path42"
             style="fill:#5b84d9;fill-opacity:1;fill-rule:nonzero;stroke:none"
             d="M 0,0 -16.657,21.279 V 0 h -4.873 v 29.566 h 4.249 L -0.666,8.37 V 29.566 H 4.247 L 4.247,0 Z" /></g><g
           transform="translate(823.79,134.6175)"
           id="g44"><path
             id="path46"
             style="fill:#5b84d9;fill-opacity:1;fill-rule:nonzero;stroke:none"
             d="M 0,0 -4.747,10.952 -9.494,0 Z m -6.829,17.49 h 4.247 L 10.326,-12.076 H 5.247 l -3.373,7.745 h -13.242 l -3.331,-7.745 h -5.04 z" /></g><g
           transform="translate(636.4186,77.1033)"
           id="g48"><path
             id="path50"
             style="fill:#5b84d9;fill-opacity:1;fill-rule:nonzero;stroke:none"
             d="M 0,0 C 6.33,0 10.536,4.455 10.536,10.243 10.536,16.032 6.33,20.487 0,20.487 H -4.205 V 0 Z M -9.078,25.026 H 0 c 8.786,0 15.49,-6.413 15.49,-14.783 C 15.49,1.873 8.786,-4.539 0,-4.539 h -9.078 z" /></g><path
           id="path52"
           style="fill:#5b84d9;fill-opacity:1;fill-rule:nonzero;stroke:none"
           d="m 657.285,102.13 h 4.873 V 72.564 h -4.873 z" /><g
           transform="translate(685.6862,84.64)"
           id="g54"><path
             id="path56"
             style="fill:#5b84d9;fill-opacity:1;fill-rule:nonzero;stroke:none"
             d="M 0,0 -4.747,10.952 -9.494,0 Z m -6.829,17.49 h 4.247 L 10.326,-12.076 H 5.247 l -3.373,7.745 h -13.242 l -3.331,-7.745 h -5.04 z" /></g><g
           transform="translate(712.3008,102.6292)"
           id="g58"><path
             id="path60"
             style="fill:#5b84d9;fill-opacity:1;fill-rule:nonzero;stroke:none"
             d="M 0,0 C 6.621,0 12.159,-4.039 13.992,-9.244 H 8.452 C 6.912,-6.537 3.705,-4.705 0,-4.705 c -6.164,0 -10.494,-4.623 -10.494,-10.578 0,-5.954 4.33,-10.576 10.536,-10.576 5.496,0 9.077,3.456 9.701,8.495 H -0.375 v 4.58 h 15.116 c 1.083,-11.452 -5.996,-17.78 -14.699,-17.78 -8.828,0 -15.449,6.662 -15.449,15.281 C -15.407,-6.663 -8.786,0 0,0" /></g><g
           transform="translate(754.0718,72.5641)"
           id="g62"><path
             id="path64"
             style="fill:#5b84d9;fill-opacity:1;fill-rule:nonzero;stroke:none"
             d="M 0,0 -16.657,21.279 V 0 h -4.873 v 29.566 h 4.249 L -0.666,8.37 V 29.566 H 4.247 L 4.247,0 Z" /></g><g
           transform="translate(780.6434,111.1659)"
           id="g66"><path
             id="path68"
             style="fill:#5b84d9;fill-opacity:1;fill-rule:nonzero;stroke:none"
             d="M 0,0 H 5.372 L 0.458,-6.538 h -3.582 z m -1.665,-34.396 c 5.829,0 10.326,4.706 10.326,10.577 0,5.871 -4.497,10.577 -10.326,10.577 -5.872,0 -10.369,-4.706 -10.369,-10.577 0,-5.871 4.497,-10.577 10.369,-10.577 m 0,-4.705 c -8.495,0 -15.282,6.746 -15.282,15.282 0,8.536 6.787,15.282 15.282,15.282 8.452,0 15.283,-6.746 15.283,-15.282 0,-8.536 -6.831,-15.282 -15.283,-15.282" /></g><g
           transform="translate(802.4695,81.0587)"
           id="g70"><path
             id="path72"
             style="fill:#5b84d9;fill-opacity:1;fill-rule:nonzero;stroke:none"
             d="m 0,0 c 0.374,-2.997 3.164,-4.455 5.872,-4.455 2.789,0 4.954,1.415 4.954,3.747 0,1.999 -1.29,3.415 -4.08,4.331 L 3.122,4.831 c -4.664,1.499 -7.244,4.206 -7.244,8.537 -0.042,5.121 3.871,8.202 9.411,8.202 6.162,0 9.535,-4.33 9.826,-8.452 h -4.872 c -0.707,2.789 -2.914,3.914 -5.037,3.914 -2.458,0 -4.415,-1.291 -4.457,-3.415 0,-2.165 1.374,-3.331 3.998,-4.206 L 8.411,8.245 c 4.622,-1.499 7.329,-4.289 7.329,-8.786 0,-4.997 -3.998,-8.453 -9.827,-8.453 -6.621,0 -10.577,4.33 -10.786,8.994 z" /></g><g
           transform="translate(828.832,97.466)"
           id="g74"><path
             id="path76"
             style="fill:#5b84d9;fill-opacity:1;fill-rule:nonzero;stroke:none"
             d="m 0,0 h -8.578 v 4.664 h 22.07 V 0 H 4.872 V -24.902 H 0 Z" /></g><path
           id="path78"
           style="fill:#5b84d9;fill-opacity:1;fill-rule:nonzero;stroke:none"
           d="m 846.699,102.13 h 4.873 V 72.564 h -4.873 z" /><g
           transform="translate(872.3525,102.6292)"
           id="g80"><path
             id="path82"
             style="fill:#5b84d9;fill-opacity:1;fill-rule:nonzero;stroke:none"
             d="M 0,0 C 7.12,0 12.825,-4.622 14.241,-10.41 H 8.994 c -1.25,3.373 -4.83,5.705 -8.994,5.705 -6.163,0 -10.494,-4.623 -10.494,-10.578 0,-5.954 4.331,-10.576 10.494,-10.576 4.164,0 7.744,2.332 8.994,5.705 h 5.247 C 12.825,-25.943 7.12,-30.564 0,-30.564 c -8.786,0 -15.407,6.662 -15.407,15.281 C -15.407,-6.663 -8.786,0 0,0" /></g><g
           transform="translate(907.1686,84.64)"
           id="g84"><path
             id="path86"
             style="fill:#5b84d9;fill-opacity:1;fill-rule:nonzero;stroke:none"
             d="M 0,0 -4.747,10.952 -9.494,0 Z m -6.829,17.49 h 4.247 L 10.326,-12.076 H 5.247 l -3.373,7.745 h -13.242 l -3.331,-7.745 h -5.04 z" /></g><g
           transform="translate(103.6722,115.2656)"
           id="g88"><path
             id="path90"
             style="fill:#13191f;fill-opacity:1;fill-rule:nonzero;stroke:none"
             d="m 0,0 v 100.135 c 0,1.986 -1.61,3.596 -3.596,3.596 h -24.156 c -1.985,0 -3.595,-1.61 -3.595,-3.596 V -10e-4 c 0,-23.421 18.986,-42.407 42.407,-42.407 h 54.966 c 1.986,0 3.596,1.61 3.596,3.596 v 24.155 c 0,1.986 -1.61,3.596 -3.596,3.596 H 11.061 C 4.952,-11.061 0,-6.109 0,0" /></g><g
           transform="translate(490.166,103.602)"
           id="g92"><path
             id="path94"
             style="fill:#13191f;fill-opacity:1;fill-rule:nonzero;stroke:none"
             d="m 0,0 h -61.933 v 27.201 h 51.845 V 27.18 c 0.275,0 0.548,0.016 0.823,0.021 h 8.787 c 7.197,0 13.491,-5.448 13.972,-12.668 C 14.022,6.614 7.765,0 0,0 m -10.532,84.309 c 6.847,0 12.845,-5.147 13.373,-12.011 C 3.418,64.786 -2.382,58.481 -9.676,58.249 h -52.257 v 26.06 z M 27.51,48.61 c 4.374,7.312 6.706,15.995 6.176,25.246 -1.344,23.468 -21.305,41.501 -44.683,41.501 l -50.936,0.037 h -20.893 c -5.774,0 -10.455,-4.706 -10.455,-10.512 V -20.495 c 0,-5.806 4.681,-10.512 10.455,-10.512 h 19.952 v -0.041 h 62.033 c 24.562,0 45.104,19.692 45.245,44.388 0.082,14.284 -6.551,27.035 -16.894,35.27" /></g><g
           transform="translate(280.6312,186.2499)"
           id="g96"><path
             id="path98"
             style="fill:#13191f;fill-opacity:1;fill-rule:nonzero;stroke:none"
             d="m 0,0 21.529,-53.921 c -6.604,-1.727 -13.426,-2.627 -20.428,-2.627 -7.591,0 -15.13,1.111 -22.375,3.198 z m -46.97,-110.904 12.817,28.708 c 11.326,-3.746 23.255,-5.7 35.254,-5.7 11.301,0 22.576,1.74 33.328,5.08 l 12.541,-28.088 c 0.747,-1.674 2.408,-2.751 4.241,-2.751 h 25.821 c 2.582,0 4.308,2.66 3.255,5.017 L 22.162,21.556 c -3.9,8.732 -12.598,14.373 -22.161,14.373 -9.563,0 -18.261,-5.641 -22.162,-14.375 l -58.125,-130.192 c -1.052,-2.357 0.673,-5.017 3.255,-5.017 h 25.82 c 1.833,0 3.494,1.077 4.241,2.751" /></g><g
           transform="translate(582.8829,103.6021)"
           id="g100"><path
             id="path102"
             style="fill:#5b84d9;fill-opacity:1;fill-rule:nonzero;stroke:none"
             d="m 0,0 h -12.185 c -5.125,0 -9.279,-4.154 -9.279,-9.279 v -12.185 c 0,-5.125 4.154,-9.279 9.279,-9.279 H 0 c 5.125,0 9.279,4.154 9.279,9.279 V -9.279 C 9.279,-4.154 5.125,0 0,0" /></g></g></g></g></svg>